<mxfile host="app.diagrams.net" modified="2023-09-11T03:11:54.326Z" agent="Mozilla/5.0 (Windows NT 10.0; Win64; x64) AppleWebKit/537.36 (KHTML, like Gecko) Chrome/116.0.0.0 Safari/537.36" version="21.7.2" etag="UNKRNwt3iHaDPHWYcAqq" type="github">
  <diagram name="第 1 页" id="hqSWZFtHrokmSo7FY-W8">
    <mxGraphModel>
      <root>
        <mxCell id="0" />
        <mxCell id="1" parent="0" />
      </root>
    </mxGraphModel>
  </diagram>
</mxfile>
